<svg xmlns="http://www.w3.org/2000/svg" xmlns:xlink="http://www.w3.org/1999/xlink"
     viewBox="0 0 427.66 426.9">
    <defs>
        <style>
            .cls-1{isolation:isolate;}.cls-15,.cls-2{fill:none;}.cls-3{fill:#93918a;}.cls-4{fill:url(#linear-gradient);}.cls-5{fill:#437dd4;}.cls-10,.cls-11,.cls-12,.cls-13,.cls-15,.cls-5,.cls-6,.cls-7,.cls-8,.cls-9{stroke:#052f6d;stroke-width:6px;}.cls-10,.cls-11,.cls-12,.cls-13,.cls-15,.cls-17,.cls-5,.cls-6,.cls-7,.cls-8,.cls-9{stroke-miterlimit:10;}.cls-6{fill:url(#linear-gradient-2);}.cls-7{fill:url(#linear-gradient-3);}.cls-8{fill:url(#linear-gradient-4);}.cls-9{fill:url(#linear-gradient-5);}.cls-10{fill:url(#linear-gradient-6);}.cls-11{fill:url(#linear-gradient-7);}.cls-12{fill:url(#linear-gradient-8);}.cls-13{fill:url(#linear-gradient-9);}.cls-14,.cls-16{fill:#1448a4;mix-blend-mode:multiply;}.cls-14{opacity:0.2;}.cls-16{opacity:0.35;}.cls-17,.cls-20{fill:#fff;}.cls-17{stroke:#000;}.cls-18{fill:#fefffd;}.cls-19{fill:#010201;}.cls-21{fill:url(#linear-gradient-10);}.cls-22{fill:url(#linear-gradient-11);}.cls-23{fill:#48453e;}.cls-24{fill:#a09e95;}.cls-25{fill:url(#linear-gradient-12);}.cls-26{fill:#afaea8;}.cls-27{fill:#47443e;}.cls-28{fill:#bcbbb8;}
        </style>
        <linearGradient id="linear-gradient" x1="502.98" y1="505.1" x2="502.98" y2="338.32"
                        gradientUnits="userSpaceOnUse">
            <stop offset="0.01" stop-color="#7a6a5f"/>
            <stop offset="0.97" stop-color="#4f4b49"/>
        </linearGradient>
        <linearGradient id="linear-gradient-2" x1="611.98" y1="559.58" x2="638.7" y2="559.58"
                        gradientUnits="userSpaceOnUse">
            <stop offset="0" stop-color="#4279d0"/>
            <stop offset="1" stop-color="#6891d1"/>
        </linearGradient>
        <linearGradient id="linear-gradient-3" x1="350.06" y1="618.3" x2="388.28" y2="618.3"
                        xlink:href="#linear-gradient-2"/>
        <linearGradient id="linear-gradient-4" x1="376.04" y1="571.25" x2="416.37" y2="571.25"
                        xlink:href="#linear-gradient-2"/>
        <linearGradient id="linear-gradient-5" x1="383.02" y1="507.85" x2="432.2" y2="507.85"
                        xlink:href="#linear-gradient-2"/>
        <linearGradient id="linear-gradient-6" x1="393.38" y1="447.75" x2="431.24" y2="447.75"
                        xlink:href="#linear-gradient-2"/>
        <linearGradient id="linear-gradient-7" x1="439.36" y1="403.22" x2="475.63" y2="403.22"
                        xlink:href="#linear-gradient-2"/>
        <linearGradient id="linear-gradient-8" x1="494.06" y1="386.88" x2="538.84" y2="386.88"
                        xlink:href="#linear-gradient-2"/>
        <linearGradient id="linear-gradient-9" x1="359.02" y1="536.58" x2="613.92" y2="536.58"
                        gradientUnits="userSpaceOnUse">
            <stop offset="0" stop-color="#1448a4"/>
            <stop offset="1" stop-color="#4279d0"/>
        </linearGradient>
        <linearGradient id="linear-gradient-10" x1="255.88" y1="576.28" x2="702.12" y2="643.26"
                        gradientUnits="userSpaceOnUse">
            <stop offset="0" stop-color="#736357"/>
            <stop offset="1" stop-color="#333"/>
        </linearGradient>
        <linearGradient id="linear-gradient-11" x1="253.44" y1="592.49" x2="699.68" y2="659.48"
                        xlink:href="#linear-gradient-10"/>
        <linearGradient id="linear-gradient-12" x1="408.92" y1="181.34" x2="416.32" y2="181.34"
                        xlink:href="#linear-gradient-10"/>
    </defs>
    <g class="cls-1">
        <g id="Layer_1">
            <ellipse class="cls-2" cx="215.5" cy="206.5" rx="167.72" ry="161.5"/>
            <ellipse class="cls-3" cx="215.57" cy="207.5" rx="167.5" ry="161.28"/>
            <path class="cls-4"
                  d="M503,349.32c90.59,0,164.38,69.26,167.39,155.78.06-1.83.11-3.66.11-5.5,0-89.07-75-161.28-167.5-161.28s-167.5,72.21-167.5,161.28c0,1.84,0,3.67.1,5.5C338.6,418.58,412.38,349.32,503,349.32Z"
                  transform="translate(-287.48 -293.1)"/>
            <path class="cls-5"
                  d="M633.09,661.14a9.58,9.58,0,0,1,2.7-2.72c.41-.3.85-.56,1.27-.85a4.19,4.19,0,0,1,2.38-.68,12.81,12.81,0,0,0,1.93-4.17,7.14,7.14,0,0,1,.24-.74c-3.19-7.24-11.37-17.19-28.72-30.76a14.84,14.84,0,0,0-3.57-2l-6.79-2.68S591.77,659,547.26,670.06h72.91c3.11-5,7.69-7.32,12.81-8.69A2.4,2.4,0,0,1,633.09,661.14Z"
                  transform="translate(-287.48 -293.1)"/>
            <path class="cls-6" d="M613.77,542.79s24.2,8.26,24.91,20.84S612,576.36,612,576.36l.42-17.83Z"
                  transform="translate(-287.48 -293.1)"/>
            <path class="cls-7" d="M363,636.84s-16.63-23.31-12.19-33.61,37.46,5.65,37.46,5.65S380.35,629.29,363,636.84Z"
                  transform="translate(-287.48 -293.1)"/>
            <path class="cls-8"
                  d="M412.21,572.91c.47-3.11,3.19-4.63,4.05-7.63.93-3.22-4.21-8-3.24-11.23-3.13-.32-36.27-3.42-37,7.25-.73,11.19,22.75,27.58,22.75,27.58.76-.7,8.86.76,9.54,0A78.74,78.74,0,0,0,412.21,572.91Z"
                  transform="translate(-287.48 -293.1)"/>
            <path class="cls-9"
                  d="M430.11,517.39c-.25-3.16,2.34-4.75,2.07-7.91s-14.31-8.31-15.08-11.43-4-6.09-4.49-9.33c-7.05,2.44-32.64,12-29.29,21.1,3.87,10.52,32,16,32,16,.54-1.27,10.66,2.18,11,.88C426.22,525.1,430.23,518.93,430.11,517.39Z"
                  transform="translate(-287.48 -293.1)"/>
            <path class="cls-10"
                  d="M412.14,465.67H412c-.6-.16-1.56-1.54-2-2q-1.79-1.81-3.5-3.71a85.32,85.32,0,0,1-8.32-10.62c-2.2-3.4-4.43-7.33-4.73-11.46a9.15,9.15,0,0,1,.14-2.61c1.34-6.34,12.14-5.57,16.78-5.28a101.39,101.39,0,0,1,10.58,1.24q2.63.45,5.24,1c.9.18,6.07.62,4.92,2.14a34.85,34.85,0,0,0-3,3.66c-.77,1.34-1.25,2.81-2,4.14-1.33,2.24-2.94,4.29-4.22,6.56-1.38,2.45-2.25,5.3-3.67,7.79C416.56,459.35,416.58,465.41,412.14,465.67Z"
                  transform="translate(-287.48 -293.1)"/>
            <path class="cls-11"
                  d="M444.52,384.3c-8.53,7.28-3.91,35.55-3.91,35.55s14.05,6.92,9.9,1.18c-.08-.12,25.12-15.1,25.12-15.1S453.06,377,444.52,384.3Z"
                  transform="translate(-287.48 -293.1)"/>
            <path class="cls-12"
                  d="M497.08,405.88h.3a80.19,80.19,0,0,1,10.51.07l4.24.39c5.31.16,10.62-.05,15.92-.05,2.34,0,4.68-.13,7-.2,2.39-.74,3.78-1.31,3.78-1.31s-11.27-41.75-24-37.09S494.06,406,494.06,406l.05,0A29.39,29.39,0,0,1,497.08,405.88Z"
                  transform="translate(-287.48 -293.1)"/>
            <path class="cls-13"
                  d="M609.28,474.72s-7.18-74-102.93-70.94c-91.94,3-95.28,62.3-94.79,76.33a26.85,26.85,0,0,0,.63,4.81C429.93,564.75,388.12,617,359,642.62c5.16,4.73,9.36,10.55,15.52,14a4.47,4.47,0,0,1,2.42,3.55,8.58,8.58,0,0,1,.87,1.24,5.32,5.32,0,0,1,.6,1.44,29.91,29.91,0,0,0,6.41,1.76,4.51,4.51,0,0,1,2.32,1c42,2.9,102.26,5.57,156.75,2.41C639.88,662.5,609.28,474.72,609.28,474.72Z"
                  transform="translate(-287.48 -293.1)"/>
            <path class="cls-14"
                  d="M541,409.52s-65.68-3.16-97.13,19.58-19,69.63-19,69.63,12.08,68.86-26.11,114-41.28,53.18-41.28,53.18L387,617.33s29.33-35.13,32-84c0,0,2.45-20.85-4-48.81a13.47,13.47,0,0,1-.3-2c-.46-7.3-1-48.69,43.74-66.73C477.55,407.61,515.86,403.73,541,409.52Z"
                  transform="translate(-287.48 -293.1)"/>
            <path class="cls-15" d="M437.83,610.42s68.94-4.17,89.81,58.42" transform="translate(-287.48 -293.1)"/>
            <path class="cls-15" d="M499.75,500.33s32,20.87,58.42,0" transform="translate(-287.48 -293.1)"/>
            <path class="cls-16"
                  d="M482.44,576.45a17.88,17.88,0,0,1-.8,2.44,15,15,0,0,1-4.93,4.11c-2.64,1.42-5.76,1.52-9.09.69-7-1.72-14.88-7.48-21.22-13.7l0,0c-3.56-5.09-9.23-9.8-11.31-14.69l5.39-3.59s30.22,34.15,37.81,25.76C480,575.5,481.39,575.42,482.44,576.45Z"
                  transform="translate(-287.48 -293.1)"/>
            <path class="cls-15"
                  d="M481.64,578.89a15,15,0,0,1-4.93,4.11c-2.64,1.42-5.76,1.52-9.09.69-7-1.72-14.88-7.48-21.22-13.7l0,0c-5.42-5.31-9.69-11-11.31-14.69L468.45,533l.74.91C479,546.11,490.21,567.68,481.64,578.89Z"
                  transform="translate(-287.48 -293.1)"/>
            <path class="cls-16" d="M615.55,569.68s16.81-.14,19.91-4.13c0,0-1.07,6.23-20.24,7.65Z"
                  transform="translate(-287.48 -293.1)"/>
            <path class="cls-14"
                  d="M438,613.92s65,1.68,76.05,55.12c7.12,39.69,10.95,8.3,10.95,8.3l-4.22-16.46S503.59,613.91,438,613.92Z"
                  transform="translate(-287.48 -293.1)"/>
            <path class="cls-17" d="M401.94,629.25" transform="translate(-287.48 -293.1)"/>
            <path class="cls-14" d="M503,400.91s6.45-28.42,13.47-30.59c0,0-8.71.45-17.94,30.85Z"
                  transform="translate(-287.48 -293.1)"/>
            <path class="cls-14" d="M445.84,415.11s-4.33-24.49,1.51-28.93c0,0-7.28,1.2-4.16,30.48Z"
                  transform="translate(-287.48 -293.1)"/>
            <path class="cls-14" d="M411.81,456.2s-16.34-13-15.29-20.29c0,0-2.81,6.16,14.2,24.15Z"
                  transform="translate(-287.48 -293.1)"/>
            <path class="cls-14" d="M413.36,518s-24.65-2.56-27.28-9.41c0,0,1,7.32,27.35,13.66Z"
                  transform="translate(-287.48 -293.1)"/>
            <path class="cls-14" d="M400.75,582.17S378.86,568.36,379.13,561c0,0-2.73,7.07,20.1,24.46Z"
                  transform="translate(-287.48 -293.1)"/>
            <g id="eye_R">
                <circle class="cls-18" cx="288.08" cy="175.93" r="13.21"/>
                <circle class="cls-19" cx="290.08" cy="177.93" r="9.42"/>
                <circle class="cls-20" cx="294.57" cy="172.46" r="3.24"/>
            </g>
            <g id="eye_L">
                <circle class="cls-18" cx="194.89" cy="175.93" r="13.21"/>
                <circle class="cls-19" cx="196.08" cy="177.93" r="9.42"/>
                <circle class="cls-20" cx="200.21" cy="170.68" r="3.24"/>
            </g>
            <path class="cls-21"
                  d="M714.84,536.4C696.28,632.82,608.49,705.85,503,705.85c-6.11,0-12.16-.26-18.14-.74l-1.65,2.11-.85,11.83c6.79.62,13.67,1,20.64,1,110.35,0,199.5-80.5,212.15-183.48C714.47,536.29,715.6,536.66,714.84,536.4Z"
                  transform="translate(-287.48 -293.1)"/>
            <path class="cls-22"
                  d="M475.63,689.12l-28.28-6-17,12.38.47-1.59c-81.36-27.82-140.22-101.35-143.26-188.52-.08,2.35-.13,4.71-.13,7.08,0,88.9,61.32,164.15,142.92,193.69l17-15.84,27,6.94,7.88,21.76.85-11.83Z"
                  transform="translate(-287.48 -293.1)"/>
            <polygon class="cls-23" points="16.26 186.08 5.66 160.09 23.26 175.03 16.26 186.08"/>
            <path class="cls-24"
                  d="M714.86,536.32l-11.22-9.23-7.25-6,7.41-95.92C672.47,347.89,594.37,293.1,503,293.1a226.31,226.31,0,0,0-27.35,1.66L457.5,321l-19.57-18.31c-71.88,21.89-127.47,79.09-144.8,150.46l17.6,14.95-7,11L287.52,504.8h0c1.81,88.09,60.65,162.71,142.42,191.07l17.41-12.72,28.28,6,7.56,18.1c6.52.57,13.11.88,19.79.88,53.93,0,103.17-18.88,140.9-50.22,36.82-30.58,62.68-73,71.25-121.36ZM503,661.88c-92.51,0-167.5-72.21-167.5-161.28s75-161.28,167.5-161.28,167.5,72.21,167.5,161.28S595.48,661.88,503,661.88Z"
                  transform="translate(-287.48 -293.1)"/>
            <polygon class="cls-25" points="412.02 230.58 416.32 132.1 408.92 228.03 412.02 230.58"/>
            <ellipse class="cls-26" cx="664.45" cy="599.76" rx="11.45" ry="8.51"
                     transform="translate(-289.71 903.93) rotate(-83.93)"/>
            <ellipse class="cls-27" cx="664.75" cy="596.94" rx="11.45" ry="8.51"
                     transform="translate(-286.64 901.7) rotate(-83.93)"/>
            <ellipse class="cls-26" cx="347.87" cy="384.22" rx="11.45" ry="8.51"
                     transform="translate(-457.48 112.06) rotate(-50.16)"/>
            <ellipse class="cls-27" cx="349.69" cy="382.04" rx="11.45" ry="8.51"
                     transform="translate(-455.16 112.67) rotate(-50.16)"/>
            <ellipse class="cls-26" cx="350.94" cy="400.71" rx="5.09" ry="3.78"
                     transform="translate(-382.69 398.6) rotate(-81.9)"/>
            <ellipse class="cls-27" cx="351.12" cy="399.46" rx="5.09" ry="3.78"
                     transform="translate(-381.3 397.7) rotate(-81.9)"/>
            <ellipse class="cls-26" cx="670.35" cy="613.57" rx="3.7" ry="2.75"
                     transform="translate(-525.55 296.11) rotate(-40.93)"/>
            <ellipse class="cls-27" cx="671.05" cy="612.97" rx="3.7" ry="2.75"
                     transform="translate(-524.99 296.42) rotate(-40.93)"/>
            <ellipse class="cls-26" cx="657.7" cy="583.36" rx="4.62" ry="3.43"
                     transform="translate(-342.77 804.57) rotate(-77.38)"/>
            <ellipse class="cls-27" cx="657.95" cy="582.25" rx="4.62" ry="3.43"
                     transform="translate(-341.49 803.94) rotate(-77.38)"/>
            <path class="cls-28"
                  d="M643.88,657.88S620.1,678,598.74,680.77s-45.9,4.49-45.9,4.49-28.48,5.8-35.6,12.52-34.05,9.44-34.05,9.44S568.49,719.91,643.88,657.88Z"
                  transform="translate(-287.48 -293.1)"/>
            <path class="cls-24" d="M696.39,521.13s6.19,29.79,11.93,34.53c0,0,2.43,1-2.15,14.26,0,0,5-12.09,9-33.4Z"
                  transform="translate(-287.48 -293.1)"/>
            <path class="cls-28"
                  d="M293.13,453.19s32.48-73.08,56.56-92.86S437.06,305,437.06,305l20.44,19,19.65-27.69s57.63-3.17,72,5,30.07,8.44,35.61,18.46,15.56,21.36,22.68,22.42,19,8.7,19.78,13.45,34.48,7.12,43.48,20.3,22.65,26.36,33.1,49.32c0,0-54.57-144.59-228.17-130.45L457.5,321l-19.57-18.31S323.54,331.89,293.13,453.19Z"
                  transform="translate(-287.48 -293.1)"/>
            <path class="cls-28"
                  d="M299.66,439.23s11.86,19.87,11.07,28.91c0,0-18.72,31.13-22.28,37s14.63,71.23,21,77,21.1,15.82,30.6,19,30,41.8,34.53,55.54,55.4,39.21,55.4,39.21S295.43,658.76,287.52,504.8l23.21-36.66-17.6-14.95Z"
                  transform="translate(-287.48 -293.1)"/>
            <path class="cls-24" d="M421.74,691.57s16.85-2.29,25.61-8.42l-17.41,12.72Z"
                  transform="translate(-287.48 -293.1)"/>
        </g>
    </g>
</svg>